<svg width="1512" height="819" viewBox="0 0 1512 819" fill="none" xmlns="http://www.w3.org/2000/svg">
<line x1="8.92188" y1="40.5209" x2="1502.19" y2="40.5209" stroke="black" stroke-opacity="0.05"/>
<line x1="13.375" y1="80.2048" x2="1497.73" y2="80.2048" stroke="black" stroke-opacity="0.05"/>
<line x1="8.92188" y1="278.624" x2="1502.19" y2="278.624" stroke="black" stroke-opacity="0.05"/>
<line x1="13.375" y1="318.308" x2="1497.73" y2="318.308" stroke="black" stroke-opacity="0.05"/>
<line x1="8.92188" y1="516.727" x2="1502.19" y2="516.727" stroke="black" stroke-opacity="0.05"/>
<line x1="13.375" y1="556.411" x2="1497.73" y2="556.411" stroke="black" stroke-opacity="0.05"/>
<line x1="8.92188" y1="754.831" x2="1502.19" y2="754.831" stroke="black" stroke-opacity="0.05"/>
<line x1="13.375" y1="794.514" x2="1497.73" y2="794.514" stroke="black" stroke-opacity="0.05"/>
<line x1="8.92188" y1="119.889" x2="1502.19" y2="119.889" stroke="black" stroke-opacity="0.05"/>
<line x1="13.375" y1="159.573" x2="1497.73" y2="159.573" stroke="black" stroke-opacity="0.05"/>
<line x1="8.92188" y1="357.992" x2="1502.19" y2="357.992" stroke="black" stroke-opacity="0.05"/>
<line x1="13.375" y1="397.676" x2="1497.73" y2="397.676" stroke="black" stroke-opacity="0.05"/>
<line x1="8.92188" y1="596.093" x2="1502.19" y2="596.093" stroke="black" stroke-opacity="0.05"/>
<line x1="13.375" y1="635.777" x2="1497.73" y2="635.777" stroke="black" stroke-opacity="0.05"/>
<line x1="8.92188" y1="199.254" x2="1502.19" y2="199.254" stroke="black" stroke-opacity="0.05"/>
<line x1="13.375" y1="238.94" x2="1497.73" y2="238.94" stroke="black" stroke-opacity="0.05"/>
<line x1="8.92188" y1="437.358" x2="1502.19" y2="437.358" stroke="black" stroke-opacity="0.05"/>
<line x1="13.375" y1="477.044" x2="1497.73" y2="477.044" stroke="black" stroke-opacity="0.05"/>
<line x1="8.92188" y1="675.463" x2="1502.19" y2="675.463" stroke="black" stroke-opacity="0.05"/>
<line x1="13.375" y1="715.147" x2="1497.73" y2="715.147" stroke="black" stroke-opacity="0.05"/>
<line x1="37.9531" y1="9.36154" x2="37.9531" y2="941.264" stroke="black" stroke-opacity="0.05"/>
<line x1="196.688" y1="9.36154" x2="196.687" y2="941.264" stroke="black" stroke-opacity="0.05"/>
<line x1="355.422" y1="9.36154" x2="355.422" y2="941.264" stroke="black" stroke-opacity="0.05"/>
<line x1="514.156" y1="9.36154" x2="514.156" y2="941.264" stroke="black" stroke-opacity="0.05"/>
<line x1="672.891" y1="9.36154" x2="672.891" y2="941.264" stroke="black" stroke-opacity="0.05"/>
<line x1="831.633" y1="9.36154" x2="831.633" y2="941.264" stroke="black" stroke-opacity="0.05"/>
<line x1="990.367" y1="9.36154" x2="990.367" y2="941.264" stroke="black" stroke-opacity="0.05"/>
<line x1="1149.1" y1="9.36154" x2="1149.1" y2="941.264" stroke="black" stroke-opacity="0.05"/>
<line x1="1307.84" y1="9.36154" x2="1307.84" y2="941.264" stroke="black" stroke-opacity="0.05"/>
<line x1="117.32" y1="9.36154" x2="117.32" y2="941.264" stroke="black" stroke-opacity="0.028"/>
<line x1="276.062" y1="9.36154" x2="276.062" y2="941.264" stroke="black" stroke-opacity="0.05"/>
<line x1="434.789" y1="9.36154" x2="434.789" y2="941.264" stroke="black" stroke-opacity="0.05"/>
<line x1="593.531" y1="9.36154" x2="593.531" y2="941.264" stroke="black" stroke-opacity="0.05"/>
<line x1="752.266" y1="9.36154" x2="752.266" y2="941.264" stroke="black" stroke-opacity="0.05"/>
<line x1="911" y1="9.36154" x2="911" y2="941.264" stroke="black" stroke-opacity="0.05"/>
<line x1="1069.73" y1="9.36154" x2="1069.73" y2="941.264" stroke="black" stroke-opacity="0.05"/>
<line x1="1228.47" y1="9.36153" x2="1228.47" y2="941.264" stroke="black" stroke-opacity="0.05"/>
<line x1="1387.2" y1="9.36154" x2="1387.2" y2="941.264" stroke="black" stroke-opacity="0.05"/>
<line x1="1466.58" y1="9.36154" x2="1466.58" y2="941.264" stroke="black" stroke-opacity="0.05"/>
<line x1="77.6406" y1="13.8234" x2="77.6406" y2="936.808" stroke="black" stroke-opacity="0.05"/>
<line x1="236.375" y1="13.8234" x2="236.375" y2="936.808" stroke="black" stroke-opacity="0.05"/>
<line x1="395.109" y1="13.8234" x2="395.109" y2="936.808" stroke="black" stroke-opacity="0.028"/>
<line x1="553.844" y1="13.8234" x2="553.844" y2="936.808" stroke="black" stroke-opacity="0.05"/>
<line x1="712.578" y1="13.8234" x2="712.578" y2="936.808" stroke="black" stroke-opacity="0.05"/>
<line x1="871.312" y1="13.8234" x2="871.312" y2="936.808" stroke="black" stroke-opacity="0.05"/>
<line x1="1030.05" y1="13.8234" x2="1030.05" y2="936.808" stroke="black" stroke-opacity="0.028"/>
<line x1="1188.78" y1="13.8234" x2="1188.78" y2="936.808" stroke="black" stroke-opacity="0.05"/>
<line x1="1347.52" y1="13.8234" x2="1347.52" y2="936.808" stroke="black" stroke-opacity="0.05"/>
<line x1="157" y1="13.8234" x2="157" y2="936.808" stroke="black" stroke-opacity="0.05"/>
<line x1="315.734" y1="13.8234" x2="315.734" y2="936.808" stroke="black" stroke-opacity="0.05"/>
<line x1="474.477" y1="13.8234" x2="474.477" y2="936.808" stroke="black" stroke-opacity="0.05"/>
<line x1="633.219" y1="13.8234" x2="633.219" y2="936.808" stroke="black" stroke-opacity="0.05"/>
<line x1="791.945" y1="13.8234" x2="791.945" y2="936.808" stroke="black" stroke-opacity="0.05"/>
<line x1="950.688" y1="13.8234" x2="950.687" y2="936.808" stroke="black" stroke-opacity="0.05"/>
<line x1="1109.42" y1="13.8234" x2="1109.42" y2="936.808" stroke="black" stroke-opacity="0.028"/>
<line x1="1268.16" y1="13.8234" x2="1268.16" y2="936.808" stroke="black" stroke-opacity="0.05"/>
<line x1="1426.89" y1="13.8234" x2="1426.89" y2="936.808" stroke="black" stroke-opacity="0.05"/>
<line x1="19.1716" y1="59.2485" x2="56.1802" y2="59.2485" stroke="black" stroke-opacity="0.05"/>
<line x1="28.5312" y1="69.0586" x2="46.8126" y2="69.0586" stroke="black" stroke-opacity="0.05"/>
<line x1="28.5312" y1="49.4403" x2="46.8126" y2="49.4403" stroke="black" stroke-opacity="0.05"/>
<line x1="1448.23" y1="59.2485" x2="1485.24" y2="59.2485" stroke="black" stroke-opacity="0.05"/>
<line x1="1457.59" y1="69.0586" x2="1475.88" y2="69.0586" stroke="black" stroke-opacity="0.05"/>
<line x1="1457.59" y1="49.4403" x2="1475.88" y2="49.4403" stroke="black" stroke-opacity="0.05"/>
<line x1="19.1716" y1="98.9341" x2="56.1802" y2="98.9341" stroke="black" stroke-opacity="0.05"/>
<line x1="28.5312" y1="108.744" x2="46.8126" y2="108.744" stroke="black" stroke-opacity="0.05"/>
<line x1="28.5312" y1="89.1239" x2="46.8126" y2="89.1239" stroke="black" stroke-opacity="0.05"/>
<line x1="1448.23" y1="98.9341" x2="1485.24" y2="98.9341" stroke="black" stroke-opacity="0.05"/>
<line x1="1457.59" y1="108.744" x2="1475.88" y2="108.744" stroke="black" stroke-opacity="0.05"/>
<line x1="1457.59" y1="89.1239" x2="1475.88" y2="89.1239" stroke="black" stroke-opacity="0.05"/>
<line x1="19.1716" y1="138.618" x2="56.1802" y2="138.618" stroke="black" stroke-opacity="0.05"/>
<line x1="28.5312" y1="148.428" x2="46.8126" y2="148.428" stroke="black" stroke-opacity="0.05"/>
<line x1="28.5312" y1="128.808" x2="46.8126" y2="128.808" stroke="black" stroke-opacity="0.05"/>
<line x1="1448.23" y1="138.618" x2="1485.24" y2="138.618" stroke="black" stroke-opacity="0.05"/>
<line x1="1457.59" y1="148.428" x2="1475.88" y2="148.428" stroke="black" stroke-opacity="0.05"/>
<line x1="1457.59" y1="128.808" x2="1475.88" y2="128.808" stroke="black" stroke-opacity="0.05"/>
<line x1="19.1716" y1="178.301" x2="56.1802" y2="178.301" stroke="black" stroke-opacity="0.05"/>
<line x1="28.5312" y1="188.11" x2="46.8126" y2="188.11" stroke="black" stroke-opacity="0.05"/>
<line x1="28.5312" y1="168.491" x2="46.8126" y2="168.491" stroke="black" stroke-opacity="0.05"/>
<line x1="1448.23" y1="178.301" x2="1485.24" y2="178.301" stroke="black" stroke-opacity="0.05"/>
<line x1="1457.59" y1="188.11" x2="1475.88" y2="188.11" stroke="black" stroke-opacity="0.05"/>
<line x1="1457.59" y1="168.491" x2="1475.88" y2="168.491" stroke="black" stroke-opacity="0.05"/>
<line x1="19.1716" y1="297.352" x2="56.1802" y2="297.352" stroke="black" stroke-opacity="0.05"/>
<line x1="28.5312" y1="307.162" x2="46.8126" y2="307.162" stroke="black" stroke-opacity="0.05"/>
<line x1="28.5312" y1="287.544" x2="46.8126" y2="287.544" stroke="black" stroke-opacity="0.05"/>
<line x1="1448.23" y1="297.352" x2="1485.24" y2="297.352" stroke="black" stroke-opacity="0.05"/>
<line x1="1457.59" y1="307.162" x2="1475.88" y2="307.162" stroke="black" stroke-opacity="0.05"/>
<line x1="1457.59" y1="287.544" x2="1475.88" y2="287.544" stroke="black" stroke-opacity="0.05"/>
<line x1="19.1716" y1="416.405" x2="56.1802" y2="416.405" stroke="black" stroke-opacity="0.05"/>
<line x1="28.5312" y1="426.215" x2="46.8126" y2="426.215" stroke="black" stroke-opacity="0.05"/>
<line x1="28.5312" y1="406.597" x2="46.8126" y2="406.597" stroke="black" stroke-opacity="0.05"/>
<line x1="1448.23" y1="416.405" x2="1485.24" y2="416.405" stroke="black" stroke-opacity="0.05"/>
<line x1="1457.59" y1="426.215" x2="1475.88" y2="426.215" stroke="black" stroke-opacity="0.05"/>
<line x1="1457.59" y1="406.597" x2="1475.88" y2="406.597" stroke="black" stroke-opacity="0.05"/>
<line x1="19.1716" y1="535.456" x2="56.1802" y2="535.456" stroke="black" stroke-opacity="0.05"/>
<line x1="28.5312" y1="545.264" x2="46.8126" y2="545.264" stroke="black" stroke-opacity="0.05"/>
<line x1="28.5312" y1="525.646" x2="46.8126" y2="525.646" stroke="black" stroke-opacity="0.05"/>
<line x1="1448.23" y1="535.456" x2="1485.24" y2="535.456" stroke="black" stroke-opacity="0.05"/>
<line x1="1457.59" y1="545.264" x2="1475.88" y2="545.264" stroke="black" stroke-opacity="0.05"/>
<line x1="1457.59" y1="525.646" x2="1475.88" y2="525.646" stroke="black" stroke-opacity="0.05"/>
<line x1="19.1715" y1="654.508" x2="56.1801" y2="654.508" stroke="black" stroke-opacity="0.05"/>
<line x1="28.5311" y1="664.318" x2="46.8125" y2="664.318" stroke="black" stroke-opacity="0.05"/>
<line x1="28.5311" y1="644.699" x2="46.8125" y2="644.699" stroke="black" stroke-opacity="0.05"/>
<line x1="1448.23" y1="654.508" x2="1485.24" y2="654.508" stroke="black" stroke-opacity="0.05"/>
<line x1="1457.59" y1="664.318" x2="1475.88" y2="664.318" stroke="black" stroke-opacity="0.05"/>
<line x1="1457.59" y1="644.699" x2="1475.88" y2="644.699" stroke="black" stroke-opacity="0.05"/>
<line x1="19.1715" y1="773.56" x2="56.1801" y2="773.56" stroke="black" stroke-opacity="0.05"/>
<line x1="28.5311" y1="783.37" x2="46.8125" y2="783.37" stroke="black" stroke-opacity="0.05"/>
<line x1="28.5311" y1="763.748" x2="46.8125" y2="763.748" stroke="black" stroke-opacity="0.05"/>
<line x1="1448.23" y1="773.56" x2="1485.24" y2="773.56" stroke="black" stroke-opacity="0.05"/>
<line x1="1457.59" y1="783.37" x2="1475.88" y2="783.37" stroke="black" stroke-opacity="0.05"/>
<line x1="1457.59" y1="763.748" x2="1475.88" y2="763.748" stroke="black" stroke-opacity="0.05"/>
<line x1="18.7273" y1="217.985" x2="55.7358" y2="217.985" stroke="black" stroke-opacity="0.05"/>
<line x1="28.0942" y1="227.793" x2="46.3756" y2="227.793" stroke="black" stroke-opacity="0.05"/>
<line x1="28.0942" y1="208.175" x2="46.3756" y2="208.175" stroke="black" stroke-opacity="0.05"/>
<line x1="1447.8" y1="217.985" x2="1484.81" y2="217.985" stroke="black" stroke-opacity="0.05"/>
<line x1="1457.16" y1="227.793" x2="1475.44" y2="227.793" stroke="black" stroke-opacity="0.05"/>
<line x1="1457.16" y1="208.175" x2="1475.44" y2="208.175" stroke="black" stroke-opacity="0.05"/>
<line x1="18.7273" y1="337.036" x2="55.7358" y2="337.036" stroke="black" stroke-opacity="0.05"/>
<line x1="28.0942" y1="346.848" x2="46.3756" y2="346.848" stroke="black" stroke-opacity="0.05"/>
<line x1="28.0942" y1="327.228" x2="46.3756" y2="327.228" stroke="black" stroke-opacity="0.05"/>
<line x1="1447.8" y1="337.036" x2="1484.81" y2="337.036" stroke="black" stroke-opacity="0.05"/>
<line x1="1457.16" y1="346.848" x2="1475.44" y2="346.848" stroke="black" stroke-opacity="0.05"/>
<line x1="1457.16" y1="327.228" x2="1475.44" y2="327.228" stroke="black" stroke-opacity="0.05"/>
<line x1="18.7273" y1="456.089" x2="55.7358" y2="456.089" stroke="black" stroke-opacity="0.05"/>
<line x1="28.0942" y1="465.897" x2="46.3756" y2="465.897" stroke="black" stroke-opacity="0.05"/>
<line x1="28.0942" y1="446.279" x2="46.3756" y2="446.279" stroke="black" stroke-opacity="0.05"/>
<line x1="1447.8" y1="456.089" x2="1484.81" y2="456.089" stroke="black" stroke-opacity="0.05"/>
<line x1="1457.16" y1="465.897" x2="1475.44" y2="465.897" stroke="black" stroke-opacity="0.05"/>
<line x1="1457.16" y1="446.279" x2="1475.44" y2="446.279" stroke="black" stroke-opacity="0.05"/>
<line x1="18.7271" y1="575.142" x2="55.7356" y2="575.142" stroke="black" stroke-opacity="0.05"/>
<line x1="28.094" y1="584.95" x2="46.3753" y2="584.95" stroke="black" stroke-opacity="0.05"/>
<line x1="28.094" y1="565.33" x2="46.3753" y2="565.33" stroke="black" stroke-opacity="0.05"/>
<line x1="1447.8" y1="575.142" x2="1484.81" y2="575.142" stroke="black" stroke-opacity="0.05"/>
<line x1="1457.16" y1="584.95" x2="1475.44" y2="584.95" stroke="black" stroke-opacity="0.05"/>
<line x1="1457.16" y1="565.33" x2="1475.44" y2="565.33" stroke="black" stroke-opacity="0.05"/>
<line x1="18.7271" y1="694.193" x2="55.7356" y2="694.193" stroke="black" stroke-opacity="0.05"/>
<line x1="28.094" y1="704.003" x2="46.3753" y2="704.003" stroke="black" stroke-opacity="0.05"/>
<line x1="28.094" y1="684.385" x2="46.3753" y2="684.385" stroke="black" stroke-opacity="0.05"/>
<line x1="1447.8" y1="694.193" x2="1484.81" y2="694.193" stroke="black" stroke-opacity="0.05"/>
<line x1="1457.16" y1="704.003" x2="1475.44" y2="704.003" stroke="black" stroke-opacity="0.05"/>
<line x1="1457.16" y1="684.385" x2="1475.44" y2="684.385" stroke="black" stroke-opacity="0.05"/>
<line x1="18.7271" y1="813.244" x2="55.7356" y2="813.244" stroke="black" stroke-opacity="0.05"/>
<line x1="28.094" y1="803.434" x2="46.3753" y2="803.434" stroke="black" stroke-opacity="0.05"/>
<line x1="1447.8" y1="813.244" x2="1484.81" y2="813.244" stroke="black" stroke-opacity="0.05"/>
<line x1="1457.16" y1="803.434" x2="1475.44" y2="803.434" stroke="black" stroke-opacity="0.05"/>
<line x1="18.7273" y1="257.669" x2="55.7358" y2="257.669" stroke="black" stroke-opacity="0.05"/>
<line x1="28.0942" y1="267.479" x2="46.3756" y2="267.479" stroke="black" stroke-opacity="0.05"/>
<line x1="28.0942" y1="247.859" x2="46.3756" y2="247.859" stroke="black" stroke-opacity="0.05"/>
<line x1="1447.8" y1="257.669" x2="1484.81" y2="257.669" stroke="black" stroke-opacity="0.05"/>
<line x1="1457.16" y1="267.479" x2="1475.44" y2="267.479" stroke="black" stroke-opacity="0.05"/>
<line x1="1457.16" y1="247.859" x2="1475.44" y2="247.859" stroke="black" stroke-opacity="0.05"/>
<line x1="18.7273" y1="376.722" x2="55.7358" y2="376.722" stroke="black" stroke-opacity="0.05"/>
<line x1="28.0942" y1="386.53" x2="46.3756" y2="386.53" stroke="black" stroke-opacity="0.05"/>
<line x1="28.0942" y1="366.911" x2="46.3756" y2="366.911" stroke="black" stroke-opacity="0.05"/>
<line x1="1447.8" y1="376.722" x2="1484.81" y2="376.722" stroke="black" stroke-opacity="0.05"/>
<line x1="1457.16" y1="386.53" x2="1475.44" y2="386.53" stroke="black" stroke-opacity="0.05"/>
<line x1="1457.16" y1="366.911" x2="1475.44" y2="366.911" stroke="black" stroke-opacity="0.05"/>
<line x1="18.7273" y1="495.771" x2="55.7358" y2="495.771" stroke="black" stroke-opacity="0.05"/>
<line x1="28.0942" y1="505.581" x2="46.3756" y2="505.581" stroke="black" stroke-opacity="0.05"/>
<line x1="28.0942" y1="485.962" x2="46.3756" y2="485.962" stroke="black" stroke-opacity="0.05"/>
<line x1="1447.8" y1="495.771" x2="1484.81" y2="495.771" stroke="black" stroke-opacity="0.05"/>
<line x1="1457.16" y1="505.581" x2="1475.44" y2="505.581" stroke="black" stroke-opacity="0.05"/>
<line x1="1457.16" y1="485.962" x2="1475.44" y2="485.962" stroke="black" stroke-opacity="0.05"/>
<line x1="18.7268" y1="614.829" x2="55.7354" y2="614.829" stroke="black" stroke-opacity="0.05"/>
<line x1="28.0938" y1="624.639" x2="46.3751" y2="624.639" stroke="black" stroke-opacity="0.05"/>
<line x1="28.0938" y1="605.019" x2="46.3751" y2="605.019" stroke="black" stroke-opacity="0.05"/>
<line x1="1447.8" y1="614.829" x2="1484.81" y2="614.829" stroke="black" stroke-opacity="0.05"/>
<line x1="1457.16" y1="624.639" x2="1475.44" y2="624.639" stroke="black" stroke-opacity="0.05"/>
<line x1="1457.16" y1="605.019" x2="1475.44" y2="605.019" stroke="black" stroke-opacity="0.05"/>
<line x1="18.7271" y1="733.875" x2="55.7356" y2="733.875" stroke="black" stroke-opacity="0.05"/>
<line x1="28.094" y1="743.685" x2="46.3753" y2="743.685" stroke="black" stroke-opacity="0.05"/>
<line x1="28.094" y1="724.067" x2="46.3753" y2="724.067" stroke="black" stroke-opacity="0.05"/>
<line x1="1447.8" y1="733.875" x2="1484.81" y2="733.875" stroke="black" stroke-opacity="0.05"/>
<line x1="1457.16" y1="743.685" x2="1475.44" y2="743.685" stroke="black" stroke-opacity="0.05"/>
<line x1="1457.16" y1="724.067" x2="1475.44" y2="724.067" stroke="black" stroke-opacity="0.05"/>
<line x1="58.3596" y1="56.6301" x2="58.3596" y2="19.6215" stroke="black" stroke-opacity="0.05"/>
<line x1="68.1643" y1="47.2651" x2="68.1643" y2="28.9838" stroke="black" stroke-opacity="0.05"/>
<line x1="48.5471" y1="47.2651" x2="48.5471" y2="28.9838" stroke="black" stroke-opacity="0.05"/>
<line x1="98.0471" y1="56.6301" x2="98.0471" y2="19.6215" stroke="black" stroke-opacity="0.05"/>
<line x1="107.852" y1="47.2651" x2="107.852" y2="28.9838" stroke="black" stroke-opacity="0.05"/>
<line x1="88.2346" y1="47.2651" x2="88.2346" y2="28.9838" stroke="black" stroke-opacity="0.05"/>
<line x1="137.719" y1="56.6301" x2="137.719" y2="19.6215" stroke="black" stroke-opacity="0.05"/>
<line x1="147.531" y1="47.2651" x2="147.531" y2="28.9838" stroke="black" stroke-opacity="0.05"/>
<line x1="127.914" y1="47.2651" x2="127.914" y2="28.9838" stroke="black" stroke-opacity="0.05"/>
<line x1="177.406" y1="56.6301" x2="177.406" y2="19.6215" stroke="black" stroke-opacity="0.05"/>
<line x1="187.219" y1="47.2651" x2="187.219" y2="28.9838" stroke="black" stroke-opacity="0.05"/>
<line x1="167.602" y1="47.2651" x2="167.602" y2="28.9838" stroke="black" stroke-opacity="0.05"/>
<line x1="296.453" y1="56.6301" x2="296.453" y2="19.6215" stroke="black" stroke-opacity="0.05"/>
<line x1="306.266" y1="47.2651" x2="306.266" y2="28.9838" stroke="black" stroke-opacity="0.05"/>
<line x1="286.649" y1="47.2651" x2="286.649" y2="28.9838" stroke="black" stroke-opacity="0.05"/>
<line x1="415.516" y1="56.6301" x2="415.516" y2="19.6215" stroke="black" stroke-opacity="0.05"/>
<line x1="425.321" y1="47.2651" x2="425.321" y2="28.9838" stroke="black" stroke-opacity="0.05"/>
<line x1="405.703" y1="47.2651" x2="405.703" y2="28.9838" stroke="black" stroke-opacity="0.05"/>
<line x1="534.563" y1="56.6301" x2="534.563" y2="19.6215" stroke="black" stroke-opacity="0.05"/>
<line x1="544.375" y1="47.2651" x2="544.375" y2="28.9838" stroke="black" stroke-opacity="0.05"/>
<line x1="524.75" y1="47.2651" x2="524.75" y2="28.9838" stroke="black" stroke-opacity="0.05"/>
<line x1="971.094" y1="56.6301" x2="971.094" y2="19.6215" stroke="black" stroke-opacity="0.05"/>
<line x1="980.898" y1="47.2651" x2="980.898" y2="28.9838" stroke="black" stroke-opacity="0.05"/>
<line x1="961.281" y1="47.2651" x2="961.281" y2="28.9838" stroke="black" stroke-opacity="0.05"/>
<line x1="653.61" y1="56.6301" x2="653.61" y2="19.6215" stroke="black" stroke-opacity="0.05"/>
<line x1="663.422" y1="47.2651" x2="663.422" y2="28.9838" stroke="black" stroke-opacity="0.05"/>
<line x1="643.805" y1="47.2651" x2="643.805" y2="28.9838" stroke="black" stroke-opacity="0.05"/>
<line x1="1090.14" y1="56.6302" x2="1090.14" y2="19.6217" stroke="black" stroke-opacity="0.05"/>
<line x1="1099.95" y1="47.2653" x2="1099.95" y2="28.9839" stroke="black" stroke-opacity="0.05"/>
<line x1="1080.33" y1="47.2651" x2="1080.33" y2="28.9838" stroke="black" stroke-opacity="0.05"/>
<line x1="772.672" y1="56.6301" x2="772.672" y2="19.6215" stroke="black" stroke-opacity="0.05"/>
<line x1="782.477" y1="47.2651" x2="782.477" y2="28.9838" stroke="black" stroke-opacity="0.05"/>
<line x1="762.859" y1="47.265" x2="762.859" y2="28.9837" stroke="black" stroke-opacity="0.05"/>
<line x1="1209.19" y1="56.6301" x2="1209.19" y2="19.6215" stroke="black" stroke-opacity="0.05"/>
<line x1="1218.99" y1="47.2651" x2="1218.99" y2="28.9838" stroke="black" stroke-opacity="0.05"/>
<line x1="1199.38" y1="47.2651" x2="1199.38" y2="28.9838" stroke="black" stroke-opacity="0.05"/>
<line x1="217.094" y1="57.0736" x2="217.094" y2="20.0651" stroke="black" stroke-opacity="0.05"/>
<line x1="226.906" y1="47.7106" x2="226.906" y2="29.4293" stroke="black" stroke-opacity="0.05"/>
<line x1="207.281" y1="47.7106" x2="207.281" y2="29.4293" stroke="black" stroke-opacity="0.05"/>
<line x1="336.141" y1="57.0736" x2="336.141" y2="20.0651" stroke="black" stroke-opacity="0.05"/>
<line x1="345.954" y1="47.7106" x2="345.954" y2="29.4293" stroke="black" stroke-opacity="0.05"/>
<line x1="326.337" y1="47.7106" x2="326.337" y2="29.4293" stroke="black" stroke-opacity="0.05"/>
<line x1="455.203" y1="57.0736" x2="455.203" y2="20.0651" stroke="black" stroke-opacity="0.05"/>
<line x1="465.008" y1="47.7106" x2="465.008" y2="29.4293" stroke="black" stroke-opacity="0.05"/>
<line x1="445.391" y1="47.7106" x2="445.391" y2="29.4293" stroke="black" stroke-opacity="0.05"/>
<line x1="574.25" y1="57.0736" x2="574.25" y2="20.0651" stroke="black" stroke-opacity="0.05"/>
<line x1="584.055" y1="47.7106" x2="584.055" y2="29.4293" stroke="black" stroke-opacity="0.05"/>
<line x1="564.438" y1="47.7106" x2="564.438" y2="29.4293" stroke="black" stroke-opacity="0.05"/>
<line x1="1010.77" y1="57.0736" x2="1010.77" y2="20.0651" stroke="black" stroke-opacity="0.05"/>
<line x1="1020.58" y1="47.7106" x2="1020.58" y2="29.4293" stroke="black" stroke-opacity="0.05"/>
<line x1="1000.96" y1="47.7106" x2="1000.96" y2="29.4293" stroke="black" stroke-opacity="0.05"/>
<line x1="693.297" y1="57.0736" x2="693.297" y2="20.0651" stroke="black" stroke-opacity="0.05"/>
<line x1="703.102" y1="47.7106" x2="703.102" y2="29.4293" stroke="black" stroke-opacity="0.05"/>
<line x1="683.485" y1="47.7106" x2="683.485" y2="29.4293" stroke="black" stroke-opacity="0.05"/>
<line x1="1129.83" y1="57.0736" x2="1129.83" y2="20.0651" stroke="black" stroke-opacity="0.05"/>
<line x1="1139.63" y1="47.7106" x2="1139.63" y2="29.4293" stroke="black" stroke-opacity="0.05"/>
<line x1="1120.02" y1="47.7106" x2="1120.02" y2="29.4293" stroke="black" stroke-opacity="0.05"/>
<line x1="812.36" y1="57.0736" x2="812.36" y2="20.0651" stroke="black" stroke-opacity="0.05"/>
<line x1="822.164" y1="47.7106" x2="822.164" y2="29.4293" stroke="black" stroke-opacity="0.05"/>
<line x1="802.547" y1="47.7106" x2="802.547" y2="29.4293" stroke="black" stroke-opacity="0.05"/>
<line x1="1248.88" y1="57.0736" x2="1248.88" y2="20.0651" stroke="black" stroke-opacity="0.05"/>
<line x1="1258.68" y1="47.7106" x2="1258.68" y2="29.4293" stroke="black" stroke-opacity="0.05"/>
<line x1="1239.06" y1="47.7106" x2="1239.06" y2="29.4293" stroke="black" stroke-opacity="0.05"/>
<line x1="1367.92" y1="57.0736" x2="1367.92" y2="20.0651" stroke="black" stroke-opacity="0.05"/>
<line x1="1377.73" y1="47.7106" x2="1377.73" y2="29.4293" stroke="black" stroke-opacity="0.05"/>
<line x1="1358.11" y1="47.7106" x2="1358.11" y2="29.4293" stroke="black" stroke-opacity="0.05"/>
<line x1="256.781" y1="57.0736" x2="256.781" y2="20.0651" stroke="black" stroke-opacity="0.05"/>
<line x1="266.586" y1="47.7106" x2="266.586" y2="29.4293" stroke="black" stroke-opacity="0.05"/>
<line x1="246.969" y1="47.7106" x2="246.969" y2="29.4293" stroke="black" stroke-opacity="0.05"/>
<line x1="375.828" y1="57.0736" x2="375.828" y2="20.0651" stroke="black" stroke-opacity="0.05"/>
<line x1="385.633" y1="47.7106" x2="385.633" y2="29.4293" stroke="black" stroke-opacity="0.05"/>
<line x1="366.016" y1="47.7106" x2="366.016" y2="29.4293" stroke="black" stroke-opacity="0.05"/>
<line x1="494.875" y1="57.0736" x2="494.875" y2="20.0651" stroke="black" stroke-opacity="0.05"/>
<line x1="504.68" y1="47.7106" x2="504.68" y2="29.4293" stroke="black" stroke-opacity="0.05"/>
<line x1="485.071" y1="47.7106" x2="485.071" y2="29.4293" stroke="black" stroke-opacity="0.05"/>
<line x1="931.406" y1="57.0736" x2="931.406" y2="20.0651" stroke="black" stroke-opacity="0.05"/>
<line x1="941.211" y1="47.7106" x2="941.211" y2="29.4293" stroke="black" stroke-opacity="0.05"/>
<line x1="921.594" y1="47.7106" x2="921.594" y2="29.4293" stroke="black" stroke-opacity="0.05"/>
<line x1="613.938" y1="57.0736" x2="613.938" y2="20.0651" stroke="black" stroke-opacity="0.05"/>
<line x1="623.742" y1="47.7106" x2="623.742" y2="29.4293" stroke="black" stroke-opacity="0.05"/>
<line x1="604.125" y1="47.7106" x2="604.125" y2="29.4293" stroke="black" stroke-opacity="0.05"/>
<line x1="1050.45" y1="57.0736" x2="1050.45" y2="20.0651" stroke="black" stroke-opacity="0.05"/>
<line x1="1060.26" y1="47.7106" x2="1060.26" y2="29.4293" stroke="black" stroke-opacity="0.05"/>
<line x1="1040.64" y1="47.7106" x2="1040.64" y2="29.4293" stroke="black" stroke-opacity="0.05"/>
<line x1="732.985" y1="57.0736" x2="732.985" y2="20.0651" stroke="black" stroke-opacity="0.05"/>
<line x1="742.789" y1="47.7106" x2="742.789" y2="29.4293" stroke="black" stroke-opacity="0.05"/>
<line x1="723.172" y1="47.7106" x2="723.172" y2="29.4293" stroke="black" stroke-opacity="0.05"/>
<line x1="1169.5" y1="57.0736" x2="1169.5" y2="20.0651" stroke="black" stroke-opacity="0.05"/>
<line x1="1179.31" y1="47.7106" x2="1179.31" y2="29.4293" stroke="black" stroke-opacity="0.05"/>
<line x1="1159.7" y1="47.7106" x2="1159.7" y2="29.4293" stroke="black" stroke-opacity="0.05"/>
<line x1="852.031" y1="57.0736" x2="852.031" y2="20.0651" stroke="black" stroke-opacity="0.05"/>
<line x1="861.836" y1="47.7106" x2="861.836" y2="29.4293" stroke="black" stroke-opacity="0.05"/>
<line x1="842.219" y1="47.7106" x2="842.219" y2="29.4293" stroke="black" stroke-opacity="0.05"/>
<line x1="1288.56" y1="57.0736" x2="1288.56" y2="20.0651" stroke="black" stroke-opacity="0.05"/>
<line x1="1298.37" y1="47.7106" x2="1298.37" y2="29.4293" stroke="black" stroke-opacity="0.05"/>
<line x1="1278.75" y1="47.7106" x2="1278.75" y2="29.4293" stroke="black" stroke-opacity="0.05"/>
<line x1="1407.61" y1="57.0736" x2="1407.61" y2="20.0651" stroke="black" stroke-opacity="0.05"/>
<line x1="1417.41" y1="47.7106" x2="1417.41" y2="29.4293" stroke="black" stroke-opacity="0.05"/>
<line x1="1397.8" y1="47.7106" x2="1397.8" y2="29.4293" stroke="black" stroke-opacity="0.05"/>
<line x1="891.719" y1="57.0736" x2="891.719" y2="20.0651" stroke="black" stroke-opacity="0.05"/>
<line x1="901.524" y1="47.7106" x2="901.524" y2="29.4293" stroke="black" stroke-opacity="0.05"/>
<line x1="881.906" y1="47.7106" x2="881.906" y2="29.4293" stroke="black" stroke-opacity="0.05"/>
<line x1="1328.25" y1="57.0736" x2="1328.25" y2="20.0651" stroke="black" stroke-opacity="0.05"/>
<line x1="1338.05" y1="47.7106" x2="1338.05" y2="29.4293" stroke="black" stroke-opacity="0.05"/>
<line x1="1318.44" y1="47.7106" x2="1318.44" y2="29.4293" stroke="black" stroke-opacity="0.05"/>
<line x1="1447.3" y1="57.0736" x2="1447.3" y2="20.0651" stroke="black" stroke-opacity="0.05"/>
<line x1="1457.1" y1="47.7106" x2="1457.1" y2="29.4293" stroke="black" stroke-opacity="0.05"/>
<line x1="1437.48" y1="47.7106" x2="1437.48" y2="29.4293" stroke="black" stroke-opacity="0.05"/>
<path d="M449.944 583.111C449.23 583.111 448.619 582.964 448.111 582.669C447.612 582.366 447.224 581.938 446.947 581.385C446.68 580.832 446.546 580.186 446.546 579.446C446.546 578.768 446.644 578.139 446.84 577.56C447.045 576.971 447.309 576.427 447.63 575.928C447.96 575.428 448.321 574.982 448.713 574.59C449.105 574.198 449.498 573.872 449.89 573.614H452.271C451.54 574.14 450.907 574.644 450.372 575.125C449.846 575.607 449.413 576.106 449.074 576.623C448.744 577.132 448.512 577.707 448.379 578.349L448.486 578.376C448.602 578.135 448.749 577.912 448.927 577.707C449.105 577.493 449.328 577.323 449.596 577.198C449.872 577.065 450.207 576.998 450.599 576.998C451.116 576.998 451.58 577.114 451.99 577.346C452.409 577.577 452.735 577.912 452.967 578.349C453.208 578.786 453.328 579.299 453.328 579.887C453.328 580.511 453.185 581.069 452.9 581.559C452.624 582.041 452.231 582.42 451.723 582.696C451.223 582.973 450.63 583.111 449.944 583.111ZM449.944 581.72C450.274 581.72 450.555 581.657 450.786 581.532C451.018 581.408 451.197 581.229 451.322 580.997C451.455 580.766 451.522 580.48 451.522 580.141V579.941C451.522 579.602 451.455 579.316 451.322 579.085C451.197 578.844 451.018 578.665 450.786 578.549C450.555 578.425 450.274 578.362 449.944 578.362C449.614 578.362 449.333 578.425 449.101 578.549C448.869 578.665 448.686 578.844 448.553 579.085C448.428 579.316 448.365 579.602 448.365 579.941V580.141C448.365 580.48 448.428 580.766 448.553 580.997C448.686 581.229 448.869 581.408 449.101 581.532C449.333 581.657 449.614 581.72 449.944 581.72ZM457.924 583.111C457.131 583.111 456.475 582.919 455.958 582.536C455.441 582.152 455.057 581.604 454.808 580.89C454.567 580.168 454.446 579.299 454.446 578.282C454.446 577.265 454.567 576.396 454.808 575.674C455.057 574.951 455.441 574.403 455.958 574.028C456.475 573.645 457.131 573.453 457.924 573.453C458.727 573.453 459.382 573.645 459.891 574.028C460.408 574.403 460.787 574.951 461.028 575.674C461.277 576.396 461.402 577.265 461.402 578.282C461.402 579.299 461.277 580.168 461.028 580.89C460.787 581.604 460.408 582.152 459.891 582.536C459.382 582.919 458.727 583.111 457.924 583.111ZM457.924 581.626C458.317 581.626 458.629 581.524 458.861 581.318C459.093 581.113 459.262 580.824 459.369 580.449C459.476 580.074 459.53 579.633 459.53 579.125V577.439C459.53 576.922 459.476 576.481 459.369 576.115C459.262 575.74 459.093 575.451 458.861 575.245C458.629 575.04 458.317 574.938 457.924 574.938C457.532 574.938 457.22 575.04 456.988 575.245C456.756 575.451 456.587 575.74 456.48 576.115C456.373 576.481 456.319 576.922 456.319 577.439V579.125C456.319 579.633 456.373 580.074 456.48 580.449C456.587 580.824 456.756 581.113 456.988 581.318C457.22 581.524 457.532 581.626 457.924 581.626ZM465.076 578.362C464.621 578.362 464.211 578.255 463.845 578.041C463.479 577.827 463.189 577.537 462.975 577.172C462.77 576.797 462.668 576.374 462.668 575.901C462.668 575.437 462.77 575.023 462.975 574.657C463.189 574.282 463.479 573.988 463.845 573.774C464.211 573.56 464.621 573.453 465.076 573.453C465.53 573.453 465.941 573.56 466.306 573.774C466.672 573.988 466.957 574.282 467.162 574.657C467.376 575.023 467.483 575.437 467.483 575.901C467.483 576.374 467.376 576.797 467.162 577.172C466.957 577.537 466.672 577.827 466.306 578.041C465.941 578.255 465.53 578.362 465.076 578.362ZM465.076 577.212C465.316 577.212 465.521 577.154 465.691 577.038C465.869 576.922 466.007 576.766 466.106 576.57C466.204 576.374 466.253 576.151 466.253 575.901C466.253 575.651 466.204 575.428 466.106 575.232C466.007 575.036 465.869 574.884 465.691 574.777C465.521 574.661 465.316 574.603 465.076 574.603C464.835 574.603 464.625 574.661 464.447 574.777C464.269 574.884 464.13 575.036 464.032 575.232C463.943 575.428 463.898 575.651 463.898 575.901C463.898 576.142 463.943 576.365 464.032 576.57C464.13 576.766 464.269 576.922 464.447 577.038C464.625 577.154 464.835 577.212 465.076 577.212Z" fill="black" fill-opacity="0.04"/>
<path d="M449.093 728.308H447.421V726.502H443.194V725.004L446.912 718.971H449.093V725.138H450.31V726.502H449.093V728.308ZM447.314 720.684L444.638 725.138H447.421V720.684H447.314ZM457.675 718.971V720.496H453.475L453.261 723.626H453.355C453.488 723.359 453.636 723.127 453.796 722.931C453.966 722.726 454.171 722.565 454.411 722.449C454.661 722.333 454.969 722.275 455.334 722.275C455.869 722.275 456.351 722.396 456.779 722.636C457.207 722.868 457.546 723.203 457.796 723.64C458.054 724.077 458.184 724.607 458.184 725.232C458.184 725.856 458.05 726.413 457.782 726.904C457.515 727.385 457.122 727.769 456.605 728.054C456.088 728.33 455.464 728.469 454.732 728.469C454.162 728.469 453.671 728.388 453.261 728.228C452.851 728.067 452.503 727.853 452.218 727.586C451.941 727.318 451.709 727.033 451.522 726.73L452.806 725.74C453.02 726.097 453.27 726.4 453.555 726.649C453.841 726.899 454.238 727.024 454.746 727.024C455.272 727.024 455.669 726.877 455.936 726.583C456.213 726.288 456.351 725.887 456.351 725.379V725.272C456.351 724.79 456.213 724.411 455.936 724.135C455.66 723.858 455.276 723.72 454.786 723.72C454.402 723.72 454.09 723.796 453.85 723.947C453.609 724.09 453.417 724.246 453.274 724.416L451.83 724.215L452.178 718.971H457.675ZM461.951 723.72C461.496 723.72 461.086 723.613 460.72 723.399C460.354 723.185 460.064 722.895 459.85 722.529C459.645 722.155 459.543 721.731 459.543 721.259C459.543 720.795 459.645 720.38 459.85 720.015C460.064 719.64 460.354 719.346 460.72 719.132C461.086 718.918 461.496 718.811 461.951 718.811C462.405 718.811 462.816 718.918 463.181 719.132C463.547 719.346 463.832 719.64 464.037 720.015C464.251 720.38 464.358 720.795 464.358 721.259C464.358 721.731 464.251 722.155 464.037 722.529C463.832 722.895 463.547 723.185 463.181 723.399C462.816 723.613 462.405 723.72 461.951 723.72ZM461.951 722.57C462.191 722.57 462.396 722.512 462.566 722.396C462.744 722.28 462.882 722.124 462.981 721.928C463.079 721.731 463.128 721.508 463.128 721.259C463.128 721.009 463.079 720.786 462.981 720.59C462.882 720.394 462.744 720.242 462.566 720.135C462.396 720.019 462.191 719.961 461.951 719.961C461.71 719.961 461.5 720.019 461.322 720.135C461.144 720.242 461.005 720.394 460.907 720.59C460.818 720.786 460.773 721.009 460.773 721.259C460.773 721.499 460.818 721.722 460.907 721.928C461.005 722.124 461.144 722.28 461.322 722.396C461.5 722.512 461.71 722.57 461.951 722.57Z" fill="black" fill-opacity="0.04"/>
<path d="M1289.58 727.865H1287.91V726.059H1283.69V724.561L1287.4 718.528H1289.58V724.695H1290.8V726.059H1289.58V727.865ZM1287.81 720.24L1285.13 724.695H1287.91V720.24H1287.81ZM1298.17 718.528V720.053H1293.97L1293.75 723.183H1293.85C1293.98 722.916 1294.13 722.684 1294.29 722.488C1294.46 722.282 1294.66 722.122 1294.9 722.006C1295.15 721.89 1295.46 721.832 1295.83 721.832C1296.36 721.832 1296.84 721.952 1297.27 722.193C1297.7 722.425 1298.04 722.76 1298.29 723.197C1298.55 723.633 1298.68 724.164 1298.68 724.788C1298.68 725.413 1298.54 725.97 1298.27 726.46C1298.01 726.942 1297.61 727.325 1297.1 727.611C1296.58 727.887 1295.96 728.025 1295.22 728.025C1294.65 728.025 1294.16 727.945 1293.75 727.785C1293.34 727.624 1293 727.41 1292.71 727.143C1292.43 726.875 1292.2 726.59 1292.01 726.286L1293.3 725.297C1293.51 725.653 1293.76 725.957 1294.05 726.206C1294.33 726.456 1294.73 726.581 1295.24 726.581C1295.76 726.581 1296.16 726.434 1296.43 726.139C1296.7 725.845 1296.84 725.444 1296.84 724.935V724.828C1296.84 724.347 1296.7 723.968 1296.43 723.691C1296.15 723.415 1295.77 723.277 1295.28 723.277C1294.89 723.277 1294.58 723.353 1294.34 723.504C1294.1 723.647 1293.91 723.803 1293.77 723.972L1292.32 723.772L1292.67 718.528H1298.17ZM1302.44 723.277C1301.99 723.277 1301.58 723.17 1301.21 722.956C1300.85 722.742 1300.56 722.452 1300.34 722.086C1300.14 721.712 1300.03 721.288 1300.03 720.815C1300.03 720.352 1300.14 719.937 1300.34 719.571C1300.56 719.197 1300.85 718.903 1301.21 718.689C1301.58 718.475 1301.99 718.368 1302.44 718.368C1302.9 718.368 1303.31 718.475 1303.67 718.689C1304.04 718.903 1304.32 719.197 1304.53 719.571C1304.74 719.937 1304.85 720.352 1304.85 720.815C1304.85 721.288 1304.74 721.712 1304.53 722.086C1304.32 722.452 1304.04 722.742 1303.67 722.956C1303.31 723.17 1302.9 723.277 1302.44 723.277ZM1302.44 722.126C1302.68 722.126 1302.89 722.068 1303.06 721.952C1303.24 721.837 1303.37 721.68 1303.47 721.484C1303.57 721.288 1303.62 721.065 1303.62 720.815C1303.62 720.566 1303.57 720.343 1303.47 720.147C1303.37 719.95 1303.24 719.799 1303.06 719.692C1302.89 719.576 1302.68 719.518 1302.44 719.518C1302.2 719.518 1301.99 719.576 1301.81 719.692C1301.64 719.799 1301.5 719.95 1301.4 720.147C1301.31 720.343 1301.27 720.566 1301.27 720.815C1301.27 721.056 1301.31 721.279 1301.4 721.484C1301.5 721.68 1301.64 721.837 1301.81 721.952C1301.99 722.068 1302.2 722.126 1302.44 722.126Z" fill="black" fill-opacity="0.04"/>
</svg>
